<?xml version="1.0" encoding="UTF-8" standalone="no" ?>
<!DOCTYPE svg PUBLIC "-//W3C//DTD SVG 1.1//EN" "http://www.w3.org/Graphics/SVG/1.1/DTD/svg11.dtd">
<svg xmlns="http://www.w3.org/2000/svg" xmlns:xlink="http://www.w3.org/1999/xlink" version="1.1" width="500" height="500" viewBox="0 0 500 500" xml:space="preserve">
<desc>Created with Fabric.js 4.6.0</desc>
<defs>
</defs>
<g transform="matrix(3.91 0 0 3.91 250.26 304.57)" id="K2Cr6sShp_75DAYzR8lX1"  >
<path style="stroke: rgb(166,77,112); stroke-width: 0; stroke-dasharray: none; stroke-linecap: butt; stroke-dashoffset: 0; stroke-linejoin: miter; stroke-miterlimit: 4; fill: rgb(108,59,244); fill-rule: nonzero; opacity: 1;" vector-effect="non-scaling-stroke"  transform=" translate(0, 0)" d="M -49.73475 -28.63408 C -49.73475 -40.28766 -40.28766 -49.734750000000005 -28.634079999999997 -49.734750000000005 L 28.63409 -49.734750000000005 L 28.63409 -49.734750000000005 C 40.28767 -49.734750000000005 49.73476 -40.28766 49.73476 -28.634080000000004 L 49.73476 28.634089999999993 L 49.73476 28.634089999999993 C 49.73476 40.28766999999999 40.287670000000006 49.734759999999994 28.63409 49.734759999999994 L -28.634079999999997 49.734759999999994 L -28.634079999999997 49.734759999999994 C -40.287659999999995 49.734759999999994 -49.73475 40.28766999999999 -49.73475 28.634089999999993 z" stroke-linecap="round" />
</g>
<g transform="matrix(4.39 0 0 4.39 164.63 256.48)" id="Rw6of8sr1hQwkAoxaoQMC"  >
<path style="stroke: rgb(14,145,5); stroke-width: 0; stroke-dasharray: none; stroke-linecap: butt; stroke-dashoffset: 0; stroke-linejoin: miter; stroke-miterlimit: 4; fill: rgb(255,255,255); fill-rule: nonzero; opacity: 1;" vector-effect="non-scaling-stroke"  transform=" translate(-10.94, -10.94)" d="M 10.94164 0 C 16.98143 0 21.88328 4.90186 21.88328 10.94164 C 21.88328 16.98143 16.98142 21.88328 10.94164 21.88328 C 4.90185 21.88328 0 16.98142 0 10.94164 C 0 4.90185 4.90186 0 10.94164 0 z" stroke-linecap="round" />
</g>
<g transform="matrix(4.39 0 0 4.39 336.64 255.67)" id="sRcRqsP8YC7e2fVp5lEPx"  >
<path style="stroke: rgb(14,145,5); stroke-width: 0; stroke-dasharray: none; stroke-linecap: butt; stroke-dashoffset: 0; stroke-linejoin: miter; stroke-miterlimit: 4; fill: rgb(255,255,255); fill-rule: nonzero; opacity: 1;" vector-effect="non-scaling-stroke"  transform=" translate(-10.94, -10.94)" d="M 10.94164 0 C 16.98143 0 21.88328 4.90186 21.88328 10.94164 C 21.88328 16.98143 16.98142 21.88328 10.94164 21.88328 C 4.90185 21.88328 0 16.98142 0 10.94164 C 0 4.90185 4.90186 0 10.94164 0 z" stroke-linecap="round" />
</g>
<g transform="matrix(4.39 0 0 4.39 250.68 437.14)" id="dma0f7MLF7L_Wtuw2PsVi"  >
<path style="stroke: rgb(196,218,11); stroke-width: 0; stroke-dasharray: none; stroke-linecap: butt; stroke-dashoffset: 0; stroke-linejoin: miter; stroke-miterlimit: 4; fill: rgb(255,255,255); fill-rule: nonzero; opacity: 1;" vector-effect="non-scaling-stroke"  transform=" translate(-19.5, -14.26)" d="M 0 0 L 39 0 L 39 28.5194 L 0 28.5194 z" stroke-linecap="round" />
</g>
<g transform="matrix(4.39 0 0 4.39 306.6 84.56)" id="QrbwdAQm8I86fp0--ej0v"  >
<path style="stroke: rgb(229,70,162); stroke-width: 0; stroke-dasharray: none; stroke-linecap: butt; stroke-dashoffset: 0; stroke-linejoin: miter; stroke-miterlimit: 4; fill: rgb(108,59,244); fill-rule: nonzero; opacity: 1;" vector-effect="non-scaling-stroke"  transform=" translate(-2.5, -6)" d="M 0 0 L 5 0 L 5 12 L 0 12 z" stroke-linecap="round" />
</g>
<g transform="matrix(4.39 0 0 4.39 306.6 32.69)" id="T96XRL_zNE89QGaRuCPIq"  >
<path style="stroke: rgb(26,183,138); stroke-width: 0; stroke-dasharray: none; stroke-linecap: butt; stroke-dashoffset: 0; stroke-linejoin: miter; stroke-miterlimit: 4; fill: rgb(108,59,244); fill-rule: nonzero; opacity: 1;" vector-effect="non-scaling-stroke"  transform=" translate(-7.6, -7.6)" d="M 7.60369 0 C 11.800920000000001 0 15.20738 3.40645 15.20738 7.60369 C 15.20738 11.800920000000001 11.800930000000001 15.20738 7.60369 15.20738 C 3.40646 15.20738 0 11.800930000000001 0 7.60369 C 0 3.40646 3.40645 0 7.60369 0 z" stroke-linecap="round" />
</g>
</svg>
